<svg width="50" height="50" viewBox="0 0 50 50" fill="none" xmlns="http://www.w3.org/2000/svg">
<g clip-path="url(#clip0_95_282)">
<path d="M25 0C18.3711 0 12.0078 2.63555 7.32422 7.32227C2.63583 12.0109 0.0013416 18.3695 0 25C0 31.6277 2.63672 37.991 7.32422 42.6777C12.0078 47.3645 18.3711 50 25 50C31.6289 50 37.9922 47.3645 42.6758 42.6777C47.3633 37.991 50 31.6277 50 25C50 18.3723 47.3633 12.009 42.6758 7.32227C37.9922 2.63555 31.6289 0 25 0Z" fill="#AECB7E"/>
<path d="M36.2 14H13.8C12.26 14 11 15.2375 11 16.75V33.25C11 34.7625 12.26 36 13.8 36H36.2C37.74 36 39 34.7625 39 33.25V16.75C39 15.2375 37.74 14 36.2 14ZM35.64 19.8438L26.484 25.4675C25.574 26.0312 24.426 26.0312 23.516 25.4675L14.36 19.8438C14.2196 19.7664 14.0967 19.6618 13.9986 19.5364C13.9006 19.411 13.8295 19.2673 13.7896 19.1141C13.7497 18.961 13.7419 18.8014 13.7666 18.6452C13.7913 18.4889 13.8481 18.3392 13.9334 18.2052C14.0187 18.0711 14.1309 17.9554 14.263 17.8651C14.3952 17.7748 14.5446 17.7118 14.7023 17.6799C14.86 17.648 15.0226 17.6478 15.1803 17.6794C15.3381 17.711 15.4876 17.7737 15.62 17.8637L25 23.625L34.38 17.8637C34.5124 17.7737 34.6619 17.711 34.8197 17.6794C34.9774 17.6478 35.14 17.648 35.2977 17.6799C35.4554 17.7118 35.6048 17.7748 35.737 17.8651C35.8691 17.9554 35.9813 18.0711 36.0666 18.2052C36.1519 18.3392 36.2087 18.4889 36.2334 18.6452C36.2581 18.8014 36.2503 18.961 36.2104 19.1141C36.1705 19.2673 36.0994 19.411 36.0014 19.5364C35.9033 19.6618 35.7804 19.7664 35.64 19.8438Z" fill="white"/>
</g>
<defs>
<clipPath id="clip0_95_282">
<rect width="50" height="50" fill="white"/>
</clipPath>
</defs>
</svg>
