<svg width="50" height="50" viewBox="0 0 50 50" fill="none" xmlns="http://www.w3.org/2000/svg">
<g clip-path="url(#clip0_100_375)">
<path d="M25 0C18.3711 0 12.0078 2.63555 7.32422 7.32227C2.63583 12.0109 0.0013416 18.3695 0 25C0 31.6277 2.63672 37.991 7.32422 42.6777C12.0078 47.3645 18.3711 50 25 50C31.6289 50 37.9922 47.3645 42.6758 42.6777C47.3633 37.991 50 31.6277 50 25C50 18.3723 47.3633 12.009 42.6758 7.32227C37.9922 2.63555 31.6289 0 25 0Z" fill="url(#paint0_linear_100_375)"/>
<path d="M11.3165 24.7361C18.6056 21.5611 23.4649 19.4679 25.8946 18.4564C32.8399 15.5685 34.2813 15.0669 35.2228 15.05C35.4298 15.0466 35.8907 15.0978 36.1915 15.341C36.4415 15.546 36.5118 15.8234 36.547 16.0181C36.5782 16.2126 36.6212 16.656 36.586 17.0021C36.211 20.9552 34.5821 30.5482 33.754 34.9759C33.4063 36.8494 32.7149 37.4775 32.047 37.5388C30.5938 37.6724 29.4923 36.5794 28.086 35.658C25.8868 34.2154 24.6446 33.3177 22.5079 31.9103C20.0392 30.2837 21.6407 29.3896 23.047 27.9287C23.4142 27.5462 29.8126 21.7279 29.9337 21.2001C29.9493 21.1341 29.9649 20.888 29.8165 20.7584C29.672 20.6283 29.4571 20.6728 29.3009 20.708C29.0782 20.758 25.5665 23.0814 18.754 27.6779C17.7579 28.363 16.8556 28.697 16.0431 28.6794C15.1524 28.6603 13.4337 28.1748 12.1563 27.7599C10.5938 27.2509 9.34775 26.9818 9.45713 26.1173C9.51182 25.6673 10.1329 25.2068 11.3165 24.7361Z" fill="white"/>
</g>
<defs>
<linearGradient id="paint0_linear_100_375" x1="2500" y1="0" x2="2500" y2="5000" gradientUnits="userSpaceOnUse">
<stop stop-color="#2AABEE"/>
<stop offset="1" stop-color="#229ED9"/>
</linearGradient>
<clipPath id="clip0_100_375">
<rect width="50" height="50" fill="white"/>
</clipPath>
</defs>
</svg>
