<svg width="50" height="50" viewBox="0 0 50 50" fill="none" xmlns="http://www.w3.org/2000/svg">
<g clip-path="url(#clip0_100_378)">
<path d="M25 0C18.3711 0 12.0078 2.63555 7.32422 7.32227C2.63583 12.0109 0.0013416 18.3695 0 25C0 31.6277 2.63672 37.991 7.32422 42.6777C12.0078 47.3645 18.3711 50 25 50C31.6289 50 37.9922 47.3645 42.6758 42.6777C47.3633 37.991 50 31.6277 50 25C50 18.3723 47.3633 12.009 42.6758 7.32227C37.9922 2.63555 31.6289 0 25 0Z" fill="#60D669"/>
<g clip-path="url(#clip1_100_378)">
<path d="M8.70431 24.7967C8.70353 27.6534 9.43366 30.4427 10.822 32.9013L8.57153 41.3014L16.9803 39.0474C19.3061 40.3417 21.912 41.0199 24.56 41.0201H24.567C33.3088 41.0201 40.4248 33.748 40.4285 24.8095C40.4302 20.4782 38.7817 16.4053 35.7867 13.3411C32.7922 10.2772 28.8097 8.58889 24.5664 8.58691C15.8235 8.58691 8.70804 15.8587 8.70444 24.7967" fill="url(#paint0_linear_100_378)"/>
<path d="M8.13793 24.7913C8.13703 27.7507 8.89332 30.6398 10.3311 33.1864L8 41.8876L16.7103 39.5528C19.1103 40.8905 21.8124 41.5958 24.562 41.5969H24.5691C33.6245 41.5969 40.9961 34.0631 41 24.8047C41.0015 20.3178 39.2938 16.0985 36.1918 12.9245C33.0894 9.75087 28.9644 8.00184 24.5691 8C15.5121 8 8.14154 15.5327 8.13793 24.7913ZM13.3252 32.7478L13 32.22C11.6328 29.9976 10.9112 27.4294 10.9122 24.7923C10.9151 17.0968 17.0412 10.836 24.5743 10.836C28.2223 10.8376 31.6507 12.2914 34.2293 14.9291C36.8078 17.5672 38.2267 21.0739 38.2258 24.8036C38.2225 32.4991 32.0962 38.7608 24.5691 38.7608H24.5637C22.1128 38.7595 19.7091 38.0866 17.6128 36.815L17.1139 36.5126L11.945 37.898L13.3252 32.7478Z" fill="url(#paint1_linear_100_378)"/>
<path d="M20.4625 17.7711C20.1549 17.0723 19.8313 17.0582 19.5388 17.0459C19.2993 17.0354 19.0255 17.0361 18.7519 17.0361C18.4781 17.0361 18.0333 17.1414 17.6573 17.5612C17.2809 17.9813 16.2202 18.9965 16.2202 21.0615C16.2202 23.1264 17.6914 25.1221 17.8965 25.4024C18.1019 25.6822 20.7367 30.0552 24.9097 31.7376C28.3777 33.1357 29.0835 32.8576 29.8362 32.7875C30.589 32.7177 32.2653 31.7725 32.6073 30.7924C32.9495 29.8125 32.9495 28.9725 32.8469 28.797C32.7443 28.6221 32.4705 28.5171 32.06 28.3073C31.6494 28.0975 29.6308 27.082 29.2546 26.9419C28.8782 26.8019 28.6045 26.7321 28.3307 27.1523C28.0569 27.5719 27.2707 28.5171 27.0311 28.797C26.7917 29.0775 26.552 29.1125 26.1416 28.9025C25.7308 28.692 24.4086 28.2493 22.8399 26.8196C21.6195 25.7071 20.7955 24.3332 20.556 23.913C20.3165 23.4934 20.5303 23.2659 20.7362 23.0568C20.9207 22.8687 21.1469 22.5667 21.3524 22.3217C21.5571 22.0766 21.6254 21.9017 21.7623 21.6218C21.8993 21.3416 21.8307 21.0965 21.7282 20.8866C21.6254 20.6767 20.8276 18.6009 20.4625 17.7711Z" fill="white"/>
</g>
</g>
<defs>
<linearGradient id="paint0_linear_100_378" x1="1601.42" y1="3280.03" x2="1601.42" y2="8.58691" gradientUnits="userSpaceOnUse">
<stop stop-color="#1FAF38"/>
<stop offset="1" stop-color="#60D669"/>
</linearGradient>
<linearGradient id="paint1_linear_100_378" x1="1658" y1="3396.76" x2="1658" y2="8" gradientUnits="userSpaceOnUse">
<stop stop-color="#F9F9F9"/>
<stop offset="1" stop-color="white"/>
</linearGradient>
<clipPath id="clip0_100_378">
<rect width="50" height="50" fill="white"/>
</clipPath>
<clipPath id="clip1_100_378">
<rect width="33" height="34" fill="white" transform="translate(8 8)"/>
</clipPath>
</defs>
</svg>
