<svg width="60" height="65" viewBox="0 0 60 65" fill="none" xmlns="http://www.w3.org/2000/svg">
<g clip-path="url(#clip0_209_697)">
<rect width="60" height="64.7529" fill="#E6E7DD"/>
<circle cx="29.9308" cy="35.3756" r="14.8268" fill="url(#paint0_linear_209_697)"/>
<path d="M35.5787 9.15536C35.3118 8.70876 34.9818 8.29128 34.5984 7.90778C32.0602 5.36407 27.9398 5.36407 25.4016 7.90778C25.0182 8.29128 24.6882 8.70876 24.4261 9.15536C22.9702 11.5729 23.2225 14.7234 25.1832 16.8787C25.256 16.9564 25.3288 17.0341 25.4016 17.1069C25.4987 17.204 25.6006 17.3011 25.7025 17.3884C25.7122 17.3981 25.7219 17.403 25.7316 17.4127C25.8335 17.5001 25.9355 17.5826 26.0374 17.6603C26.0374 17.6554 26.0325 17.6554 26.0325 17.6506C28.362 19.4613 31.638 19.4613 33.9675 17.6506C33.9675 17.6554 33.9626 17.6554 33.9626 17.6603C34.0646 17.5826 34.1665 17.5001 34.2684 17.4127C34.2781 17.403 34.2878 17.3981 34.2975 17.3884C34.3994 17.3011 34.5013 17.204 34.5984 17.1069C34.6712 17.0341 34.744 16.9564 34.8168 16.8787C36.7775 14.7234 37.0298 11.5729 35.5787 9.15536ZM38.7964 6.05825C39.8204 7.45147 40.5193 9.09226 40.7862 10.8787C40.8639 11.4078 40.9076 11.9564 40.9076 12.5098C40.9076 14.7719 40.2233 16.869 39.0488 18.6069C38.5732 19.3059 38.0248 19.9467 37.4084 20.5147C36.9182 20.971 36.3795 21.3836 35.8068 21.7428C35.8991 21.7817 35.9913 21.8205 36.0786 21.8691C36.2533 21.9467 36.4232 22.0341 36.5931 22.1263C36.7435 22.1992 36.894 22.2817 37.0396 22.3691C37.1997 22.4564 37.355 22.5535 37.5103 22.6506C37.5686 22.6846 37.6268 22.7234 37.685 22.7623C37.8112 22.8351 37.9325 22.9176 38.0539 23.005C38.2092 23.1118 38.3596 23.2186 38.5149 23.3351C38.7382 23.5001 38.9614 23.6798 39.1798 23.8642C39.3157 23.9759 39.4467 24.0924 39.5729 24.2089C39.6603 24.2817 39.7428 24.3594 39.8253 24.4419C39.9078 24.5147 39.9903 24.5972 40.0679 24.6798C40.1505 24.7574 40.2281 24.84 40.3058 24.9225C40.3883 25.005 40.4659 25.0875 40.5387 25.1749C40.6115 25.2526 40.6795 25.3302 40.7474 25.4079C40.8542 25.5293 40.9609 25.6506 41.058 25.7769C41.1793 25.9225 41.3007 26.073 41.4123 26.2283C41.4754 26.3108 41.5385 26.3934 41.5919 26.4759C41.6404 26.539 41.6841 26.6021 41.7277 26.6652C41.883 26.8934 42.0383 27.1264 42.1791 27.3642C42.2956 27.5487 42.4072 27.7429 42.5091 27.9322C42.611 28.1264 42.7129 28.3206 42.81 28.5147C42.844 28.5827 42.8731 28.6458 42.9022 28.7138C42.9702 28.8545 43.0332 28.9953 43.0963 29.141C43.1303 29.2186 43.1643 29.2963 43.1934 29.3788C43.2419 29.4905 43.2856 29.607 43.3293 29.7235C43.5186 30.2235 43.6787 30.7381 43.8146 31.2672C43.8486 31.3983 43.8777 31.5293 43.9068 31.6652C43.9214 31.7332 43.9408 31.806 43.9505 31.8788C43.9942 32.073 44.0282 32.2623 44.0573 32.4614C44.0718 32.5293 44.0815 32.5973 44.0864 32.6701C44.1155 32.8206 44.1349 32.9711 44.1495 33.1264C44.1786 33.3789 44.2029 33.6313 44.2126 33.8837C44.2223 34.0196 44.2271 34.1507 44.232 34.2866C44.2368 34.4371 44.2417 34.5925 44.2417 34.7478C44.2417 34.9031 44.2368 35.0585 44.232 35.209C44.2271 35.3449 44.2223 35.476 44.2126 35.6119C44.2029 35.8643 44.1786 36.1167 44.1495 36.3692C44.1349 36.5245 44.1155 36.675 44.0864 36.8255C44.0815 36.8983 44.0718 36.9663 44.0573 37.0342C44.0282 37.2333 43.9942 37.4226 43.9505 37.6168C43.9408 37.6896 43.9214 37.7624 43.9068 37.8303C43.8777 37.9663 43.8486 38.0973 43.8146 38.2284C43.6787 38.7575 43.5186 39.2721 43.3293 39.7721C43.2856 39.8886 43.2419 40.0051 43.1934 40.1168C43.1643 40.1993 43.1303 40.277 43.0963 40.3546C43.0332 40.5003 42.9702 40.641 42.9022 40.7818C42.8731 40.8498 42.844 40.9129 42.81 40.9809C42.7178 41.1702 42.6256 41.3546 42.5237 41.5391C42.4266 41.7139 42.3295 41.8886 42.2228 42.0585C42.0626 42.3255 41.8927 42.5877 41.7132 42.845C41.6452 42.9469 41.5724 43.0488 41.4996 43.1459L41.4268 43.2479C41.3492 43.3498 41.2764 43.4518 41.1939 43.5488C40.9803 43.8255 40.7571 44.0877 40.5193 44.345C40.3883 44.4906 40.2524 44.6314 40.1165 44.7722C40.0825 44.8061 40.0534 44.8353 40.0194 44.8644C39.9029 44.9809 39.7865 45.0925 39.6651 45.2042C39.437 45.4178 39.1992 45.6217 38.9614 45.8158C38.811 45.9324 38.6654 46.0489 38.5149 46.1605C38.3596 46.277 38.2092 46.3887 38.0539 46.4906C37.8986 46.6023 37.7384 46.7091 37.5783 46.8061C37.4181 46.9032 37.2531 47.0003 37.0929 47.0974C36.9279 47.1945 36.7629 47.2867 36.5931 47.3693C36.4232 47.4663 36.2533 47.5489 36.0786 47.6265C35.734 47.7964 35.3846 47.9421 35.0255 48.0731C34.8847 48.1314 34.744 48.1848 34.5935 48.2285L34.3752 48.3013C34.2296 48.3547 34.0791 48.3984 33.9287 48.4372C32.6814 48.8013 31.3613 48.9906 29.9976 48.9906C28.4494 48.9906 26.9643 48.7431 25.5715 48.2867C25.4938 48.2625 25.4162 48.2333 25.3385 48.2042C25.2366 48.1751 25.1395 48.1363 25.0425 48.1023C24.8678 48.0392 24.693 47.9663 24.5232 47.8984C24.3533 47.8304 24.1835 47.7528 24.0136 47.6702C23.868 47.6071 23.7273 47.5392 23.5865 47.4615C23.5622 47.4518 23.538 47.4372 23.5089 47.4275C23.3487 47.345 23.1837 47.2576 23.0284 47.1654C22.8682 47.0829 22.7081 46.9858 22.5528 46.8887C22.3926 46.7916 22.2373 46.6896 22.0869 46.5877C21.9607 46.51 21.8345 46.4178 21.7132 46.3256C21.6792 46.3061 21.6501 46.2819 21.6161 46.2576C21.5045 46.1799 21.3929 46.1023 21.2861 46.01C21.223 45.9615 21.1648 45.9178 21.1065 45.8692C20.9949 45.7819 20.8881 45.6896 20.7814 45.6023C20.7571 45.5828 20.7328 45.5586 20.7086 45.5391C20.5872 45.4421 20.4708 45.3353 20.3591 45.2285C20.2281 45.1071 20.0922 44.9809 19.966 44.8498C19.835 44.7236 19.7088 44.5877 19.5826 44.4566C19.4807 44.3547 19.3934 44.2576 19.306 44.1508C19.2575 44.0974 19.2089 44.0391 19.1604 43.9857L18.8838 43.6508C18.8595 43.6217 18.8401 43.5925 18.8158 43.5634C18.7188 43.442 18.6217 43.3158 18.5295 43.1896C18.0102 42.4809 17.5491 41.7236 17.1657 40.9226C17.1318 40.8595 17.1026 40.7915 17.0687 40.7236C16.695 39.9177 16.3941 39.0682 16.1757 38.1847C16.132 38.0003 16.0883 37.8109 16.0495 37.6168C16.0398 37.5682 16.0301 37.5245 16.0204 37.476C16.001 37.374 15.9816 37.2672 15.967 37.1653C15.8991 36.7964 15.8505 36.4274 15.8214 36.0488C15.802 35.8595 15.7874 35.6701 15.7777 35.4808C15.7729 35.3789 15.768 35.2769 15.7632 35.1701C15.7583 35.0294 15.7583 34.8886 15.7583 34.7478C15.7583 34.607 15.7583 34.4662 15.7632 34.3255C15.768 34.2187 15.7729 34.1167 15.7777 34.0148C15.7874 33.8255 15.802 33.6361 15.8214 33.4468C15.8505 33.0682 15.8991 32.6992 15.967 32.3303C15.9816 32.2284 16.001 32.1216 16.0204 32.0196C16.0301 31.9711 16.0398 31.9274 16.0495 31.8788C16.0883 31.6847 16.132 31.4953 16.1757 31.3109C16.3892 30.4468 16.6853 29.6118 17.0493 28.8206C17.0881 28.738 17.1221 28.6555 17.1657 28.573C17.3744 28.141 17.6025 27.7235 17.85 27.3206C17.9374 27.1652 18.0345 27.0196 18.1315 26.8739C18.4227 26.4371 18.7382 26.0147 19.0779 25.6118C19.1604 25.505 19.2478 25.4079 19.34 25.306C19.9321 24.6409 20.5824 24.0293 21.2861 23.4856C21.3929 23.403 21.5045 23.3205 21.6161 23.238C21.6501 23.2137 21.6792 23.1895 21.7132 23.17C21.8345 23.0778 21.9607 22.9904 22.0869 22.9079C22.3926 22.704 22.7032 22.5098 23.0284 22.3302C23.2128 22.2234 23.3972 22.1263 23.5865 22.0341C23.7273 21.9564 23.868 21.8885 24.0136 21.8254C24.0718 21.7962 24.1301 21.7671 24.1932 21.7428C23.6496 21.403 23.14 21.0147 22.6693 20.5875C22.0189 20.0001 21.4414 19.3351 20.9512 18.602C19.7768 16.8642 19.0925 14.7671 19.0925 12.5098C19.0925 11.9564 19.1361 11.4078 19.2138 10.8787C19.4807 9.09226 20.1844 7.44661 21.2084 6.0534C8.92987 9.81071 0 21.2331 0 34.7478C0 51.3207 13.4336 64.7529 29.9976 64.7529C46.5615 64.7529 60 51.3207 60 34.7478C60 21.238 51.075 9.81556 38.7964 6.05825Z" fill="url(#paint1_linear_209_697)"/>
<path style="mix-blend-mode:multiply" d="M48.2843 31.9327C48.26 31.7774 48.2358 31.6269 48.2066 31.4716C48.1435 31.1026 48.0659 30.7386 47.9785 30.3793C47.9494 30.2531 47.9154 30.1269 47.8815 30.0055C47.4592 28.3939 46.8235 26.8696 46.0033 25.4667C45.9208 25.321 45.8334 25.1754 45.7412 25.0298C45.3384 24.3696 44.8919 23.7434 44.4066 23.1414C44.2901 22.9958 44.1688 22.8501 44.0475 22.7094C44.0329 22.6899 44.0135 22.6705 43.9941 22.6511C43.9213 22.5637 43.8436 22.4764 43.766 22.389C43.7611 22.3793 43.7563 22.3744 43.7466 22.3696C43.6204 22.2288 43.4893 22.088 43.3583 21.9472C43.1739 21.7579 42.9895 21.5686 42.7953 21.3841C41.6694 20.3064 40.4124 19.3744 39.0487 18.6074C38.5731 19.3064 38.0246 19.9472 37.4083 20.5152C36.9181 20.9715 36.3794 21.3841 35.8067 21.7433H35.8019C35.8019 21.7433 35.797 21.7531 35.7922 21.7531C40.7618 23.9715 44.227 28.9521 44.227 34.7483C44.227 40.5445 40.6648 45.6659 35.5835 47.8358C35.5544 47.8503 35.5204 47.8649 35.4913 47.8746C33.8024 48.5834 31.9436 48.9766 29.9975 48.9766C22.145 48.9766 15.7728 42.6076 15.7728 34.7483C15.7728 30.4376 17.6946 26.5735 20.723 23.9667C20.7279 23.9667 20.7279 23.9618 20.7279 23.9618C20.7521 23.9424 20.7715 23.923 20.791 23.9084C20.8007 23.8987 20.8104 23.889 20.8201 23.8841C20.8298 23.8744 20.8443 23.8647 20.8541 23.855C21.8635 23.0055 22.9895 22.2967 24.2076 21.7531C24.2028 21.7531 24.1979 21.7482 24.193 21.7433C23.6495 21.4035 23.1399 21.0152 22.6691 20.588C22.0188 20.0006 21.4413 19.3356 20.9511 18.6025C19.7863 19.2627 18.6944 20.0394 17.7043 20.9278C16.0979 22.3599 14.7439 24.0637 13.715 25.9715C13.5985 26.1803 13.4918 26.3987 13.385 26.6123C12.9579 27.4764 12.5988 28.3842 12.3124 29.3211C12.2154 29.6318 12.128 29.9473 12.0504 30.2677C11.7398 31.5153 11.5553 32.8114 11.5117 34.1415C11.5068 34.3405 11.502 34.5444 11.502 34.7483C11.502 34.9522 11.5068 35.1561 11.5117 35.3551C11.5553 36.6852 11.7398 37.9813 12.0504 39.2289C12.128 39.5493 12.2154 39.8648 12.3124 40.1755C12.5988 41.1124 12.9579 42.0202 13.385 42.8843C13.4918 43.0979 13.5985 43.3163 13.715 43.5251C14.7439 45.4328 16.0979 47.1367 17.7043 48.5688C20.9705 51.4863 25.2753 53.2533 29.9975 53.2533C34.9623 53.2533 39.4709 51.297 42.7953 48.1125C43.2612 47.6659 43.7077 47.1901 44.1251 46.695C44.227 46.5736 44.3338 46.4474 44.4309 46.3212C44.5376 46.195 44.6347 46.0688 44.7318 45.9377C44.8288 45.8066 44.9259 45.6804 45.0229 45.5445C45.3093 45.1513 45.5762 44.7435 45.8286 44.326L46.0761 43.9037C46.2411 43.6222 46.3915 43.3357 46.5371 43.0396C46.6148 42.894 46.6827 42.7435 46.7555 42.5979C47.2214 41.6076 47.6 40.5687 47.8815 39.4911C47.9154 39.3697 47.9494 39.2435 47.9785 39.1173C48.0659 38.758 48.1435 38.394 48.2066 38.025C48.2358 37.8697 48.26 37.7192 48.2843 37.5639C48.425 36.6464 48.4978 35.7046 48.4978 34.7483C48.4978 33.792 48.425 32.8502 48.2843 31.9327Z" fill="url(#paint2_radial_209_697)"/>
<path style="mix-blend-mode:multiply" d="M48.498 34.7477C48.498 35.704 48.4252 36.6458 48.2844 37.5633C48.2602 37.7186 48.2359 37.8691 48.2068 38.0244C48.1437 38.3934 48.0661 38.7575 47.9787 39.1167C47.9496 39.2429 47.9156 39.3691 47.8816 39.4905C47.6002 40.5681 47.2216 41.607 46.7557 42.5973C46.6829 42.7429 46.615 42.8934 46.5373 43.039C46.3917 43.3352 46.2413 43.6216 46.0762 43.9031L45.8287 44.3255C45.5764 44.7429 45.3094 45.1507 45.0231 45.5439C44.926 45.6798 44.829 45.8061 44.7319 45.9371C44.6348 46.0682 44.5378 46.1944 44.431 46.3206C44.334 46.4468 44.2272 46.5731 44.1253 46.6944C43.7079 47.1896 43.2614 47.6653 42.7955 48.1119C41.257 48.6799 39.5924 48.9905 37.8549 48.9905C36.4912 48.9905 35.176 48.7964 33.9287 48.4371C34.0792 48.3935 34.2296 48.3498 34.3752 48.3012L34.5936 48.2284C34.7392 48.1799 34.8848 48.1265 35.0255 48.0731C35.3847 47.9371 35.7341 47.7867 36.0787 47.6265C36.2534 47.5439 36.4233 47.4566 36.5931 47.3692C36.7581 47.2818 36.928 47.1896 37.093 47.0973C37.2531 47.0002 37.4182 46.9032 37.5783 46.8061C37.7385 46.7041 37.8986 46.5973 38.0539 46.4905C38.2092 46.3886 38.3597 46.2769 38.515 46.1604C38.6654 46.0488 38.811 45.9323 38.9615 45.8158C39.1993 45.6216 39.4371 45.4177 39.6652 45.2041C39.7865 45.0973 39.903 44.9808 40.0195 44.8643C40.0534 44.8352 40.0826 44.806 40.1165 44.7721C40.2524 44.6313 40.3883 44.4905 40.5193 44.3449C40.7571 44.0876 40.9804 43.8255 41.1939 43.5488C41.2764 43.4517 41.3492 43.3497 41.4269 43.2478L41.4997 43.1458C41.5773 43.0487 41.6501 42.9468 41.7132 42.8449C41.8928 42.5876 42.0627 42.3254 42.2228 42.0585C42.3296 41.8885 42.4266 41.7138 42.5237 41.539C42.6256 41.3546 42.7178 41.1701 42.81 40.9808C42.844 40.9128 42.8731 40.8497 42.9023 40.7817C42.9702 40.641 43.0333 40.5002 43.0964 40.3546C43.1304 40.2769 43.1643 40.1992 43.1935 40.1167C43.242 40.005 43.2857 39.8885 43.3293 39.772C43.5186 39.272 43.6788 38.7575 43.8147 38.2283C43.8486 38.0973 43.8778 37.9662 43.9069 37.8303C43.9214 37.7623 43.9408 37.6895 43.9505 37.6167C43.9942 37.4225 44.0282 37.2332 44.0573 37.0341C44.0719 36.9662 44.0816 36.8982 44.0864 36.8254C44.1156 36.6749 44.135 36.5244 44.1495 36.3691C44.1786 36.1167 44.2029 35.8642 44.2126 35.6118C44.2223 35.4759 44.232 35.3448 44.232 35.2089C44.2369 35.0584 44.2417 34.9031 44.2417 34.7477C44.2417 34.5924 44.2369 34.437 44.232 34.2865C44.232 34.1506 44.2223 34.0196 44.2126 33.8836C44.2029 33.6312 44.1786 33.3788 44.1495 33.1263C44.135 32.971 44.1156 32.8205 44.0864 32.67C44.0816 32.5972 44.0719 32.5292 44.0573 32.4613C44.0282 32.2623 43.9942 32.0729 43.9505 31.8788C43.9408 31.8059 43.9214 31.7331 43.9069 31.6652C43.8778 31.5292 43.8486 31.3982 43.8147 31.2671C43.6788 30.738 43.5186 30.2234 43.3293 29.7234C43.2857 29.6069 43.242 29.4904 43.1935 29.3787C43.1643 29.2962 43.1304 29.2185 43.0964 29.1409C43.0333 28.9952 42.9702 28.8545 42.9023 28.7137C42.8731 28.6457 42.844 28.5826 42.81 28.5147C42.713 28.3205 42.6159 28.1263 42.5091 27.9321C42.4072 27.7428 42.2956 27.5486 42.1791 27.3642C42.0384 27.1263 41.8831 26.8933 41.7278 26.6651C41.6841 26.602 41.6404 26.5389 41.5919 26.4758C41.5385 26.3933 41.4754 26.3108 41.4123 26.2282C41.3007 26.0729 41.1794 25.9224 41.058 25.7768C40.961 25.6506 40.8542 25.5292 40.7474 25.4078C40.6844 25.3302 40.6164 25.2525 40.5388 25.1748C40.466 25.0874 40.3883 25.0049 40.3058 24.9224C40.2282 24.8399 40.1505 24.7573 40.068 24.6797C39.9903 24.5971 39.9078 24.5146 39.8253 24.4418C39.7428 24.3593 39.6603 24.2816 39.573 24.2088C39.4468 24.0874 39.3158 23.9758 39.1799 23.8641C38.9615 23.6797 38.7382 23.5001 38.515 23.335C38.3597 23.2185 38.2092 23.1117 38.0539 23.0049C37.9326 22.9175 37.8113 22.835 37.6851 22.7622C37.6268 22.7233 37.5686 22.6845 37.5104 22.6505C37.3551 22.5534 37.1998 22.4564 37.0396 22.369C36.8892 22.2865 36.7436 22.2039 36.5931 22.1263C36.4233 22.0389 36.2534 21.9515 36.0787 21.869C35.9913 21.8204 35.8991 21.7816 35.8069 21.7428C36.3796 21.3835 36.9183 20.9709 37.4084 20.5146C37.5589 20.5049 37.7045 20.5049 37.8549 20.5049C39.5924 20.5049 41.257 20.8156 42.7955 21.3835C42.9896 21.568 43.174 21.7573 43.3585 21.9466C43.4895 22.0874 43.6205 22.2282 43.7467 22.369C43.7564 22.369 43.7613 22.3787 43.7661 22.3884C43.8438 22.4758 43.9214 22.5632 43.9942 22.6505C44.0136 22.6699 44.0331 22.6894 44.0476 22.7088C44.1689 22.8496 44.2903 22.9952 44.4067 23.1408C44.8921 23.7428 45.3386 24.369 45.7414 25.0292C45.8336 25.1748 45.9209 25.3205 46.0034 25.4661C46.8236 26.869 47.4594 28.3933 47.8816 30.005C47.9156 30.1263 47.9496 30.2525 47.9787 30.3787C48.0661 30.738 48.1437 31.1021 48.2068 31.471C48.2359 31.6263 48.2602 31.7768 48.2844 31.9322C48.4252 32.8496 48.498 33.7914 48.498 34.7477Z" fill="url(#paint3_linear_209_697)"/>
<path style="mix-blend-mode:multiply" d="M25.3384 48.2047C25.2365 48.1756 25.1394 48.1368 25.0424 48.1028C24.8677 48.0397 24.693 47.9668 24.5231 47.8989C24.3532 47.8261 24.1834 47.7533 24.0135 47.6707C23.8679 47.6076 23.7272 47.5397 23.5864 47.462C23.5622 47.4523 23.5379 47.4377 23.5088 47.428C23.3486 47.3455 23.1836 47.2581 23.0283 47.1659C22.8682 47.0785 22.708 46.9814 22.5527 46.8892C22.3925 46.7921 22.2372 46.6901 22.0868 46.5882C21.9606 46.5057 21.8344 46.4183 21.7131 46.3261C21.6791 46.3066 21.65 46.2824 21.616 46.2581C21.5044 46.1756 21.3928 46.093 21.286 46.0105C21.2229 45.962 21.1647 45.9183 21.1064 45.8697C20.9948 45.7824 20.8881 45.6901 20.7813 45.6028C20.757 45.5833 20.7328 45.5591 20.7085 45.5396C20.592 45.4377 20.4755 45.3358 20.3591 45.229C20.228 45.1076 20.0921 44.9814 19.9659 44.8503C19.8349 44.7241 19.7087 44.5882 19.5825 44.4571L19.3059 44.1513C19.2574 44.0979 19.2089 44.0396 19.1603 43.9862L18.8837 43.6513C18.8594 43.6222 18.84 43.593 18.8157 43.5639C18.7187 43.4425 18.6216 43.3163 18.5294 43.1901C18.0101 42.4814 17.5491 41.7241 17.1657 40.9231C17.1317 40.86 17.1026 40.792 17.0686 40.7241C16.6949 39.9182 16.394 39.0687 16.1756 38.1852C16.1271 37.9959 16.0882 37.8066 16.0494 37.6173C16.0397 37.5687 16.03 37.525 16.0203 37.4765C16.0009 37.3745 15.9815 37.2677 15.9669 37.1658C15.899 36.7969 15.8504 36.4279 15.8213 36.0493C15.8019 35.86 15.7874 35.6706 15.7776 35.4813C15.7728 35.3794 15.7679 35.2774 15.7631 35.1706C15.7582 35.0299 15.7582 34.8891 15.7582 34.7483C15.7582 34.6075 15.7582 34.4667 15.7631 34.326C15.7679 34.2192 15.7728 34.1172 15.7776 34.0153C15.7874 33.826 15.8019 33.6366 15.8213 33.4473C15.8504 33.0687 15.899 32.6997 15.9669 32.3308C15.9815 32.2289 16.0009 32.1221 16.0203 32.0201C16.03 31.9716 16.0397 31.9279 16.0494 31.8793C16.0882 31.69 16.1271 31.5007 16.1756 31.3114C16.3891 30.4473 16.6852 29.6123 17.0492 28.8211C17.088 28.7385 17.122 28.656 17.1657 28.5735C17.219 28.4618 17.2821 28.3502 17.3404 28.2385H17.3549C18.1994 26.6075 19.3447 25.156 20.7279 23.9667C20.7328 23.9667 20.7328 23.9618 20.7328 23.9618C20.757 23.9424 20.7764 23.923 20.7958 23.9084C20.8055 23.8987 20.8153 23.889 20.825 23.8841C20.8347 23.8744 20.8492 23.8647 20.8589 23.855C21.8684 23.0055 22.9943 22.2967 24.2125 21.7531C24.2076 21.7531 24.2028 21.7482 24.1979 21.7433C23.6544 21.4035 23.1448 21.0152 22.674 20.588C22.0237 20.0006 21.4462 19.3356 20.956 18.6025C19.7912 19.2627 18.6993 20.0394 17.7092 20.9278C16.1028 22.3599 14.7488 24.0637 13.7199 25.9715C13.6034 26.1803 13.4966 26.3987 13.3899 26.6123C12.9628 27.4764 12.6037 28.3842 12.3173 29.3211C12.2203 29.6318 12.1329 29.9473 12.0552 30.2677C11.7446 31.5153 11.5602 32.8114 11.5165 34.1415C11.5117 34.3405 11.5068 34.5444 11.5068 34.7483C11.5068 34.9522 11.5117 35.1561 11.5165 35.3551C11.5602 36.6852 11.7446 37.9813 12.0552 39.2289C12.1329 39.5493 12.2203 39.8648 12.3173 40.1755C12.6037 41.1124 12.9628 42.0202 13.3899 42.8843C13.4966 43.0979 13.6034 43.3163 13.7199 43.5251C14.7488 45.4328 16.1028 47.1367 17.7092 48.5688C18.8109 48.8455 19.9659 48.9911 21.1501 48.9911C22.6983 48.9911 24.1834 48.7436 25.5762 48.2872C25.4986 48.263 25.4209 48.2338 25.3433 48.2047H25.3384Z" fill="url(#paint4_linear_209_697)"/>
<path style="mix-blend-mode:overlay" opacity="0.7" d="M38.7964 6.05825C39.8204 7.45147 40.5193 9.09226 40.7862 10.8787C49.8665 14.9904 56.1805 24.1312 56.1805 34.7478C56.1805 49.2139 44.4601 60.9373 29.9976 60.9373C15.5351 60.9373 3.81946 49.2139 3.81946 34.7478C3.81946 24.1312 10.1335 14.9904 19.2138 10.8787C19.4807 9.09226 20.1844 7.44661 21.2084 6.0534C8.92987 9.81071 0 21.2331 0 34.7478C0 51.3207 13.4336 64.7529 29.9976 64.7529C46.5615 64.7529 60 51.3207 60 34.7478C60 21.238 51.075 9.81556 38.7964 6.05825ZM34.5984 7.90778C32.0602 5.36407 27.9398 5.36407 25.4016 7.90778C25.0182 8.29128 24.6882 8.70876 24.4261 9.15536C26.2218 8.76216 28.0854 8.55827 29.9976 8.55827C31.9097 8.55827 33.7831 8.76216 35.5787 9.15536C35.3118 8.70876 34.9818 8.29128 34.5984 7.90778Z" fill="url(#paint5_linear_209_697)"/>
<circle cx="29.9307" cy="12.5127" r="8.79908" fill="#FCCC2E" stroke="#E6E7DD" stroke-width="4.57275"/>
</g>
<defs>
<linearGradient id="paint0_linear_209_697" x1="29.9308" y1="20.5488" x2="34.2264" y2="47.8468" gradientUnits="userSpaceOnUse">
<stop stop-color="#6DCF9F"/>
<stop offset="1" stop-color="#48A3A4"/>
</linearGradient>
<linearGradient id="paint1_linear_209_697" x1="49.8471" y1="9.43207" x2="13.7379" y2="55.4576" gradientUnits="userSpaceOnUse">
<stop stop-color="#FCCC2E"/>
<stop offset="0.396666" stop-color="#FCCC2E"/>
<stop offset="1" stop-color="#E3494B"/>
</linearGradient>
<radialGradient id="paint2_radial_209_697" cx="0" cy="0" r="1" gradientUnits="userSpaceOnUse" gradientTransform="translate(29.9975 35.9279) scale(42.6256 42.6363)">
<stop stop-color="#E3484B"/>
<stop offset="1" stop-color="white" stop-opacity="0"/>
</radialGradient>
<linearGradient id="paint3_linear_209_697" x1="42.2568" y1="21.2428" x2="40.8487" y2="49.0488" gradientUnits="userSpaceOnUse">
<stop stop-color="white" stop-opacity="0"/>
<stop offset="1" stop-color="#E14946"/>
</linearGradient>
<linearGradient id="paint4_linear_209_697" x1="23.8873" y1="48.1853" x2="15.3273" y2="22.0213" gradientUnits="userSpaceOnUse">
<stop stop-color="white" stop-opacity="0"/>
<stop offset="1" stop-color="#E14C48"/>
</linearGradient>
<linearGradient id="paint5_linear_209_697" x1="34.2247" y1="-0.970928" x2="25.2516" y2="74.8155" gradientUnits="userSpaceOnUse">
<stop stop-color="white"/>
<stop offset="1" stop-color="white" stop-opacity="0"/>
</linearGradient>
<clipPath id="clip0_209_697">
<rect width="60" height="64.7529" fill="white"/>
</clipPath>
</defs>
</svg>
