<svg xmlns="http://www.w3.org/2000/svg" xmlns:xlink="http://www.w3.org/1999/xlink"><defs><style>
    .sprite-symbol-usage {display: none;}
    .sprite-symbol-usage:target {display: inline;}
  </style><symbol fill="none" viewBox="0 0 79 70" id="about-0"><path d="m44.237 31.654 3.5-13.71c.567-2.218 3.307-3.01 4.97-1.438l5.642 5.337L64.5 16l-1.439-1.918a3 3 0 0 1 .279-3.922l7.122-7.122a3 3 0 0 1 4.156-.083l2.19 2.021a3 3 0 0 1 .18 4.227l-6.802 7.45a3 3 0 0 1-3.806.522L64.5 16l-6.151 5.843 5.151 4.873c1.726 1.633.96 4.529-1.348 5.094l-14.294 3.5c-2.2.54-4.181-1.461-3.62-3.656Z" fill="#CDDBB5" /><path d="m54.5 25.5 10-9.5m0 0-1.439-1.918a3 3 0 0 1 .279-3.922l7.122-7.122a3 3 0 0 1 4.156-.083l2.19 2.021a3 3 0 0 1 .18 4.227l-6.802 7.45a3 3 0 0 1-3.806.522L64.5 16Zm-2.348 15.81-14.294 3.5c-2.2.54-4.181-1.461-3.62-3.656l3.5-13.71c.566-2.218 3.306-3.01 4.968-1.438L63.5 26.716c1.726 1.633.96 4.529-1.348 5.094Z" stroke="#CDDBB5" stroke-width="3" stroke-linecap="round" /><rect x="3" y="26" width="30" height="14" rx="3" fill="#CDDBB5" /><rect x="16" y="41" width="30" height="14" rx="3" fill="#CDDBB5" /><rect x="47" y="41" width="30" height="14" rx="3" fill="#CDDBB5" /><rect x="31" y="56" width="30" height="14" rx="3" fill="#CDDBB5" /><rect y="56" width="30" height="14" rx="3" fill="#CDDBB5" /></symbol><symbol fill="none" viewBox="0 0 80 80" id="about-1"><g clip-path="url(#about-1_a)" fill="#CDDBB5"><path d="M7 22.458V8.536c.257-.634.6-1.185 1.294-1.422 1.01-.346 1.72.143 2.394.818 20.31 20.319 40.627 40.632 60.934 60.954.505.505.92 1.1 1.378 1.655v.902l-1.16 1.418H57.53c0-.598.014-1.196-.005-1.793-.037-1.107-.846-1.924-1.896-1.941-1.082-.017-1.92.806-1.96 1.941-.02.597-.005 1.195-.005 1.793h-3.867c0-.598.014-1.196-.005-1.793-.037-1.107-.846-1.924-1.896-1.941-1.08-.017-1.92.806-1.96 1.941-.02.597-.005 1.195-.005 1.793h-3.867c0-.598.014-1.196-.005-1.793-.038-1.107-.846-1.924-1.896-1.941-1.08-.017-1.921.806-1.96 1.941-.02.597-.005 1.195-.005 1.793h-3.867c0-.598.014-1.196-.005-1.793-.038-1.107-.846-1.924-1.896-1.941-1.08-.017-1.921.806-1.96 1.941-.02.597-.005 1.195-.005 1.793H26.6c0-.598.014-1.196-.005-1.793-.038-1.107-.846-1.924-1.896-1.941-1.08-.017-1.921.806-1.96 1.941-.02.597-.005 1.195-.005 1.793h-3.867c0-.598.014-1.196-.005-1.793-.038-1.107-.846-1.924-1.896-1.941-1.08-.017-1.921.806-1.96 1.941-.02.597-.005 1.195-.005 1.793H8.16L7 71.571V61.13c.645 0 1.29.015 1.934-.007 1.107-.039 1.93-.873 1.928-1.928 0-1.059-.825-1.893-1.928-1.928-.644-.02-1.29-.005-1.934-.005v-7.734c.645 0 1.29.015 1.934-.006 1.107-.04 1.93-.873 1.928-1.929 0-1.058-.825-1.892-1.928-1.927-.644-.02-1.29-.005-1.934-.005v-7.735c.645 0 1.29.016 1.934-.006 1.107-.039 1.93-.873 1.928-1.928 0-1.059-.825-1.893-1.928-1.928-.644-.02-1.29-.005-1.934-.005v-7.734c.645 0 1.29.015 1.934-.007 1.107-.038 1.93-.872 1.928-1.928 0-1.058-.825-1.892-1.928-1.927-.644-.02-1.29-.005-1.934-.005ZM31.943 61.13h1.29c3.2 0 6.4.005 9.602-.003 1.206-.003 2.06-.72 2.14-1.784.057-.776-.363-1.33-.883-1.851-7.205-7.196-14.403-14.398-21.604-21.596-.182-.182-.356-.421-.58-.499-.47-.162-.984-.368-1.453-.317-1.055.116-1.596.933-1.596 2.207v21.525c0 1.594.725 2.316 2.322 2.318h10.762ZM73 48.754c-.785 1.571-1.687 1.866-3.284 1.068-2.86-1.428-5.72-2.858-8.579-4.287-.188-.094-.373-.199-.525-.28 2.456-2.46 4.898-4.903 7.374-7.385l5.013 9.981v.903H73ZM35.728 20.93c2.595-2.597 5.29-5.298 7.914-7.925l21.73 21.73-7.925 7.913-21.718-21.72-.001.002ZM40.9 10.022l-8.155 8.138c-1.99-1.639-3.448-3.615-2.904-6.426.448-2.316 1.865-3.877 4.174-4.507 2.983-.813 5.073.661 6.886 2.793v.002Z" /></g><defs></defs></symbol><clipPath id="about-1_a"><path fill="#fff" d="M0 0h80v80H0z" /></clipPath><symbol fill="none" viewBox="0 0 80 80" id="about-2"><g clip-path="url(#about-2_a)" fill="#CDDBB5"><path d="M47.16 6c1.262.386 2.155 1.275 3.051 2.183 2.432 2.463 4.891 4.9 7.337 7.351 1.942 1.947 1.936 4.08-.019 6.035a451528.796 451528.796 0 0 1-35.96 35.96c-1.955 1.954-4.088 1.962-6.035.02-2.465-2.462-4.919-4.936-7.398-7.384-.893-.881-1.757-1.766-2.136-3.004v-1.34c.31-1.195 1.1-2.053 1.948-2.899A34477.658 34477.658 0 0 0 42.922 7.947C43.77 7.099 44.63 6.315 45.82 6h1.34ZM68.184 74c-1.6-.34-2.763-1.337-3.88-2.467-5.244-5.298-10.52-10.565-15.787-15.84-.17-.171-.374-.308-.517-.425L55.252 48c.112.107.3.278.48.458 5.265 5.276 10.52 10.565 15.805 15.821 1.13 1.122 2.125 2.287 2.463 3.891v1.458c-.332.754-.583 1.558-1.015 2.25-.761 1.218-2.016 1.755-3.347 2.122h-1.454Z" /><path d="m9.486 53.442 2.105 2.114c-.668 1.221-.842 2.562-.324 3.959.478 1.289 3.793 4.678 5.077 5.137 1.91.683 3.554.198 4.968-1.238 5.426-5.51 10.858-11.015 16.287-16.52 1.307-1.326 2.786-2.351 4.632-2.736 1.999-.416 3.767-.042 5.223 1.51.843.899 1.733 1.754 2.546 2.573l-2.123 2.126c-.69-.706-1.548-1.495-2.306-2.373-1.032-1.194-2.203-1.263-3.499-.65-.87.41-1.697 1.023-2.383 1.71-5.472 5.494-10.901 11.033-16.354 16.547-2.804 2.837-6.9 3.23-9.878.794-1.693-1.383-3.351-2.88-4.466-4.827-1.495-2.611-1.273-5.676.494-8.128l.001.002ZM57.028 2.328l2.33 2.358-1.472 1.487-2.328-2.445 1.47-1.4Z" /></g><defs></defs></symbol><clipPath id="about-2_a"><path fill="#fff" d="M0 0h80v80H0z" /></clipPath><symbol viewBox="0 0 36 16" fill="currentcolor" id="arrow"><path d="M1.765 6.75a1 1 0 1 0-.03 2l.03-2Zm33.181 2.218a1 1 0 0 0 .022-1.414l-6.265-6.461a1 1 0 0 0-1.436 1.392l5.569 5.743-5.743 5.57a1 1 0 1 0 1.392 1.435l6.461-6.265ZM1.735 8.75l32.5.5.03-2-32.5-.5-.03 2Z" /></symbol><symbol viewBox="0 0 24 24" fill="none" id="bad"><rect width="100%" height="100%" rx="12" fill="#CDDBB5" /><path d="M6.5 9.5h3.1c.22 0 .4.18.4.4v1.6m0 0H6.5m3.5 0h9m0 0v-.6c0-.22.18-.4.4-.4h1.2c.22 0 .4.18.4.4v5.7a.4.4 0 0 1-.4.4h-1.2a.4.4 0 0 1-.4-.4V16m0-4.5V16m0 0H6.5m-.5-.5v1.1a.4.4 0 0 1-.4.4H4.4a.4.4 0 0 1-.4-.4V7.4c0-.22.18-.4.4-.4h1.2c.22 0 .4.18.4.4v8.1Z" stroke="#fff" /></symbol><symbol viewBox="0 0 50 50" fill="none" id="calc-check"><rect x="2.5" y="2.5" width="45" height="45" rx="22.5" fill="#E6E7DD" /><rect x="2.5" y="2.5" width="45" height="45" rx="22.5" stroke="currentcolor" stroke-width="5" /><path d="m16 24 8.186 7.704a.4.4 0 0 0 .585-.04L35 19" stroke="currentcolor" stroke-width="4" stroke-linecap="round" /></symbol><symbol viewBox="0 0 25 25" fill="none" id="checked"><rect width="100%" height="100%" rx="12.5" fill="#B2C593" /><path d="m6 11.125 5.27 5.952a1 1 0 0 0 1.551-.068L19.5 8" stroke="#fff" stroke-width="2" stroke-linecap="round" /></symbol><symbol viewBox="0 0 30 30" fill="none" id="clock"><path d="M15 2.5c6.904 0 12.5 5.596 12.5 12.5S21.904 27.5 15 27.5 2.5 21.904 2.5 15 8.096 2.5 15 2.5Zm0 5a1.25 1.25 0 0 0-1.25 1.25V15c0 .332.132.65.366.884l3.75 3.75a1.25 1.25 0 0 0 1.768-1.768l-3.384-3.383V8.75A1.25 1.25 0 0 0 15 7.5Z" fill="#fff" /></symbol><symbol viewBox="0 0 28 23" fill="none" id="mail"><path d="M25.2.5H2.8C1.26.5 0 1.738 0 3.25v16.5c0 1.512 1.26 2.75 2.8 2.75h22.4c1.54 0 2.8-1.238 2.8-2.75V3.25C28 1.738 26.74.5 25.2.5Zm-.56 5.844-9.156 5.623a2.816 2.816 0 0 1-2.968 0L3.36 6.344a1.184 1.184 0 0 1-.57-.73 1.148 1.148 0 0 1 .143-.909 1.178 1.178 0 0 1 .77-.525 1.211 1.211 0 0 1 .917.184L14 10.125l9.38-5.761a1.201 1.201 0 0 1 .918-.184 1.201 1.201 0 0 1 .769.525 1.156 1.156 0 0 1-.427 1.639Z" fill="#B2C593" /></symbol><symbol viewBox="0 0 30 30" fill="none" id="marker"><path fill-rule="evenodd" clip-rule="evenodd" d="m15.147 29.848.003-.002.008-.006.025-.02.099-.07a30.477 30.477 0 0 0 1.62-1.295 36.17 36.17 0 0 0 3.811-3.783c2.757-3.189 5.62-7.739 5.62-12.942 0-3.108-1.228-6.092-3.415-8.292A11.633 11.633 0 0 0 14.667 0a11.633 11.633 0 0 0-8.252 3.438A11.767 11.767 0 0 0 3 11.73c0 5.202 2.863 9.752 5.62 12.94a36.18 36.18 0 0 0 3.813 3.784 31.167 31.167 0 0 0 1.716 1.367l.027.018.007.006.004.002a.834.834 0 0 0 .96 0Zm3.686-18.181a4.167 4.167 0 1 1-8.333 0 4.167 4.167 0 0 1 8.333 0Z" fill="#B2C593" /></symbol><symbol viewBox="0 0 24 24" fill="none" id="room"><rect width="100%" height="100%" rx="12" fill="#CDDBB5" /><rect x="5.5" y="5.5" width="13" height="13" rx="1.5" stroke="#fff" /><path d="m6 18 3-4m0 0h6.5M9 14v-4m6.5 4 2 4.5m-2-4.5v-4m0 0H9m6.5 0L18 6.5M9 10 6 6" stroke="#fff" /></symbol><symbol viewBox="0 0 30 30" fill="none" id="rub"><circle cx="15.5" cy="15.5" r="12.5" fill="#fff" /><path d="M11.905 21V10.5h4.545c1.4 0 2.51.295 3.33.885.82.59 1.23 1.475 1.23 2.655 0 1.17-.41 2.05-1.23 2.64-.82.59-1.93.885-3.33.885h-3.195l1.095-1.08V21h-2.445Zm2.445-4.26-1.095-1.08h3.18c.67 0 1.19-.135 1.56-.405.37-.28.555-.68.555-1.2 0-.51-.185-.9-.555-1.17-.37-.27-.89-.405-1.56-.405h-3.18l1.095-1.155v5.415Zm-3.9 2.91v-1.245h7.14v1.245h-7.14Z" fill="#CDDBB5" /></symbol><symbol fill="none" viewBox="0 0 24 24" id="size"><rect width="24" height="24" rx="12" fill="#CDDBB5" /><path d="M6.502 18.041a.5.5 0 0 0 .54.457l4.484-.373a.5.5 0 1 0-.083-.997l-3.986.332-.332-3.986a.5.5 0 1 0-.997.083l.374 4.484ZM18.498 4.958a.5.5 0 0 0-.54-.456l-4.484.373a.5.5 0 1 0 .083.997l3.986-.332.332 3.986a.5.5 0 0 0 .997-.083l-.374-4.485ZM7.382 18.323l11-13-.764-.646-11 13 .764.646Z" fill="#fff" /></symbol><symbol viewBox="0 0 24 24" id="size-1"><path d="M12 0a12 12 0 0 1 12 12 12 12 0 0 1-12 12A12 12 0 0 1 0 12 12 12 0 0 1 12 0Z" fill="#cddbb5" /><path d="M6.5 18a.5.5 0 0 0 .5.5l4.49-.38a.49.49 0 0 0 .45-.54.5.5 0 0 0-.54-.45l-4 .33-.34-4a.49.49 0 0 0-.48-.46.5.5 0 0 0-.45.54Zm12-13a.5.5 0 0 0-.5-.5l-4.49.38a.49.49 0 0 0-.45.54.5.5 0 0 0 .54.45l4-.33.34 4a.49.49 0 0 0 .54.45.5.5 0 0 0 .45-.54ZM7.38 18.32l11-13-.76-.64-11 13Z" fill="#fff" /></symbol><symbol viewBox="0 0 60 60" fill="none" id="slider-arr"><path d="m26 47 15.355-16.315a1 1 0 0 0 0-1.37L26 13" stroke="#fff" stroke-width="2" stroke-linecap="round" /></symbol><symbol viewBox="0 0 24 24" fill="none" id="square"><rect width="100%" height="100%" rx="12" fill="#CDDBB5" /><path d="M5.335 17V8.273h.983v1.34h.091c.174-.45.464-.804.87-1.062.409-.261.899-.392 1.471-.392.602 0 1.097.142 1.483.426.39.28.682.667.875 1.16h.074c.197-.486.517-.87.96-1.154.447-.288.989-.432 1.625-.432.81 0 1.45.256 1.92.767.47.508.705 1.25.705 2.227V17h-1.011v-5.847c0-.689-.177-1.206-.529-1.55-.352-.345-.816-.518-1.392-.518-.666 0-1.18.205-1.54.614-.36.409-.54.928-.54 1.557V17h-1.033v-5.938c0-.59-.165-1.068-.495-1.431-.33-.364-.793-.546-1.392-.546-.401 0-.763.099-1.085.296-.318.197-.57.471-.756.823-.181.349-.272.75-.272 1.205V17H5.335ZM17.452 10v-.384l1.44-1.576c.17-.185.308-.345.418-.482.109-.138.19-.267.243-.388a.94.94 0 0 0 .08-.383.708.708 0 0 0-.409-.658.967.967 0 0 0-.426-.092.888.888 0 0 0-.439.104.719.719 0 0 0-.287.288.902.902 0 0 0-.1.435h-.503c0-.256.059-.48.177-.674.117-.193.278-.343.481-.451.205-.108.434-.162.688-.162.256 0 .483.054.68.162.197.108.352.253.464.436.113.184.169.388.169.612 0 .16-.03.317-.087.47a2.082 2.082 0 0 1-.299.51c-.14.186-.336.413-.586.682l-.98 1.048v.034h2.029V10h-2.753Z" fill="#fff" /></symbol><symbol viewBox="0 0 41 38" fill="none" id="sys-icon"><path d="m3.774 2 30.484 33.5m0 0 4.516-28.47M34.258 35.5 2 33" stroke="#444" stroke-width="3" stroke-linecap="round" /></symbol></defs><use id="about-0-usage" xlink:href="#about-0" class="sprite-symbol-usage" /><use id="about-1-usage" xlink:href="#about-1" class="sprite-symbol-usage" /><use id="about-2-usage" xlink:href="#about-2" class="sprite-symbol-usage" /><use id="arrow-usage" xlink:href="#arrow" class="sprite-symbol-usage" /><use id="bad-usage" xlink:href="#bad" class="sprite-symbol-usage" /><use id="calc-check-usage" xlink:href="#calc-check" class="sprite-symbol-usage" /><use id="checked-usage" xlink:href="#checked" class="sprite-symbol-usage" /><use id="clock-usage" xlink:href="#clock" class="sprite-symbol-usage" /><use id="mail-usage" xlink:href="#mail" class="sprite-symbol-usage" /><use id="marker-usage" xlink:href="#marker" class="sprite-symbol-usage" /><use id="room-usage" xlink:href="#room" class="sprite-symbol-usage" /><use id="rub-usage" xlink:href="#rub" class="sprite-symbol-usage" /><use id="size-usage" xlink:href="#size" class="sprite-symbol-usage" /><use id="size-1-usage" xlink:href="#size-1" class="sprite-symbol-usage" /><use id="slider-arr-usage" xlink:href="#slider-arr" class="sprite-symbol-usage" /><use id="square-usage" xlink:href="#square" class="sprite-symbol-usage" /><use id="sys-icon-usage" xlink:href="#sys-icon" class="sprite-symbol-usage" /></svg>