<svg width="40" height="40" viewBox="0 0 40 40" fill="none" xmlns="http://www.w3.org/2000/svg">
<g clip-path="url(#clip0_95_282)">
<path d="M20 0C14.6969 0 9.60625 2.10844 5.85938 5.85781C2.10866 9.6087 0.00107328 14.6956 0 20C0 25.3022 2.10938 30.3928 5.85938 34.1422C9.60625 37.8916 14.6969 40 20 40C25.3031 40 30.3937 37.8916 34.1406 34.1422C37.8906 30.3928 40 25.3022 40 20C40 14.6978 37.8906 9.60719 34.1406 5.85781C30.3937 2.10844 25.3031 0 20 0Z" fill="#AECB7E"/>
<path d="M28.96 11.2H11.04C9.80805 11.2 8.80005 12.19 8.80005 13.4V26.6C8.80005 27.81 9.80805 28.8 11.04 28.8H28.96C30.192 28.8 31.2 27.81 31.2 26.6V13.4C31.2 12.19 30.192 11.2 28.96 11.2ZM28.512 15.875L21.1872 20.374C20.4592 20.825 19.5408 20.825 18.8128 20.374L11.488 15.875C11.3757 15.8131 11.2774 15.7294 11.199 15.6291C11.1205 15.5288 11.0636 15.4139 11.0317 15.2913C10.9998 15.1688 10.9936 15.0411 11.0133 14.9161C11.0331 14.7912 11.0785 14.6714 11.1468 14.5641C11.215 14.4569 11.3047 14.3643 11.4105 14.2921C11.5162 14.2199 11.6357 14.1695 11.7619 14.1439C11.888 14.1184 12.0181 14.1183 12.1443 14.1436C12.2705 14.1688 12.3902 14.219 12.496 14.291L20 18.9L27.504 14.291C27.6099 14.219 27.7296 14.1688 27.8558 14.1436C27.982 14.1183 28.1121 14.1184 28.2382 14.1439C28.3644 14.1695 28.4839 14.2199 28.5896 14.2921C28.6954 14.3643 28.7851 14.4569 28.8533 14.5641C28.9216 14.6714 28.967 14.7912 28.9868 14.9161C29.0065 15.0411 29.0003 15.1688 28.9684 15.2913C28.9365 15.4139 28.8796 15.5288 28.8011 15.6291C28.7227 15.7294 28.6244 15.8131 28.512 15.875Z" fill="white"/>
</g>
<defs>
<clipPath id="clip0_95_282">
<rect width="40" height="40" fill="white"/>
</clipPath>
</defs>
</svg>
