<svg width="40" height="40" viewBox="0 0 40 40" fill="none" xmlns="http://www.w3.org/2000/svg">
<g clip-path="url(#clip0_95_278)">
<path d="M20 0C14.6969 0 9.60625 2.10844 5.85938 5.85781C2.10866 9.6087 0.00107328 14.6956 0 20C0 25.3022 2.10938 30.3928 5.85938 34.1422C9.60625 37.8916 14.6969 40 20 40C25.3031 40 30.3937 37.8916 34.1406 34.1422C37.8906 30.3928 40 25.3022 40 20C40 14.6978 37.8906 9.60719 34.1406 5.85781C30.3937 2.10844 25.3031 0 20 0Z" fill="#60D669"/>
<g clip-path="url(#clip1_95_278)">
<path d="M6.96364 19.8371C6.96302 22.1225 7.54712 24.3539 8.65778 26.3207L6.85742 33.0408L13.5845 31.2376C15.4451 32.2731 17.5298 32.8157 19.6482 32.8158H19.6538C26.6472 32.8158 32.34 26.9981 32.343 19.8474C32.3444 16.3823 31.0256 13.124 28.6296 10.6726C26.234 8.22146 23.0479 6.87084 19.6533 6.86926C12.659 6.86926 6.96663 12.6867 6.96374 19.8371" fill="url(#paint0_linear_95_278)"/>
<path d="M6.51049 19.833C6.50977 22.2005 7.1148 24.5118 8.26506 26.549L6.40015 33.51L13.3684 31.6422C15.2884 32.7124 17.4501 33.2766 19.6497 33.2775H19.6554C26.8997 33.2775 32.7971 27.2505 32.8001 19.8437C32.8014 16.2542 31.4352 12.8787 28.9536 10.3395C26.4717 7.80066 23.1717 6.40144 19.6554 6.39996C12.4099 6.39996 6.51338 12.4261 6.51049 19.833ZM10.6603 26.1982L10.4002 25.776C9.30641 23.998 8.72912 21.9435 8.72995 19.8338C8.73221 13.6774 13.6331 8.66874 19.6595 8.66874C22.578 8.67 25.3207 9.83307 27.3836 11.9433C29.4464 14.0537 30.5815 16.8591 30.5808 19.8429C30.5781 25.9993 25.6771 31.0086 19.6554 31.0086H19.6511C17.6904 31.0075 15.7674 30.4692 14.0904 29.452L13.6913 29.21L9.55618 30.3184L10.6603 26.1982Z" fill="url(#paint1_linear_95_278)"/>
<path d="M16.3702 14.2171C16.1241 13.658 15.8652 13.6468 15.6312 13.637C15.4396 13.6285 15.2205 13.6292 15.0017 13.6292C14.7827 13.6292 14.4268 13.7134 14.126 14.0492C13.8248 14.3853 12.9763 15.1975 12.9763 16.8494C12.9763 18.5013 14.1533 20.0979 14.3174 20.3222C14.4816 20.546 16.5895 24.0444 19.9279 25.3903C22.7023 26.5088 23.267 26.2863 23.8691 26.2302C24.4714 26.1744 25.8124 25.4183 26.086 24.6342C26.3598 23.8502 26.3598 23.1783 26.2777 23.0378C26.1956 22.8979 25.9766 22.8139 25.6481 22.6461C25.3197 22.4782 23.7048 21.6658 23.4038 21.5537C23.1027 21.4418 22.8837 21.3859 22.6647 21.7221C22.4457 22.0578 21.8167 22.8139 21.625 23.0378C21.4335 23.2623 21.2418 23.2902 20.9134 23.1223C20.5848 22.9538 19.527 22.5997 18.2721 21.4559C17.2957 20.5659 16.6365 19.4668 16.4449 19.1306C16.2533 18.7949 16.4244 18.613 16.5891 18.4457C16.7367 18.2952 16.9177 18.0536 17.082 17.8576C17.2458 17.6615 17.3005 17.5216 17.41 17.2977C17.5196 17.0735 17.4647 16.8775 17.3827 16.7095C17.3005 16.5416 16.6622 14.881 16.3702 14.2171Z" fill="white"/>
</g>
</g>
<defs>
<linearGradient id="paint0_linear_95_278" x1="1281.14" y1="2624.03" x2="1281.14" y2="6.86926" gradientUnits="userSpaceOnUse">
<stop stop-color="#1FAF38"/>
<stop offset="1" stop-color="#60D669"/>
</linearGradient>
<linearGradient id="paint1_linear_95_278" x1="1326.4" y1="2717.41" x2="1326.4" y2="6.39996" gradientUnits="userSpaceOnUse">
<stop stop-color="#F9F9F9"/>
<stop offset="1" stop-color="white"/>
</linearGradient>
<clipPath id="clip0_95_278">
<rect width="40" height="40" fill="white"/>
</clipPath>
<clipPath id="clip1_95_278">
<rect width="26.4" height="27.2" fill="white" transform="translate(6.40015 6.39996)"/>
</clipPath>
</defs>
</svg>
